<svg xmlns="http://www.w3.org/2000/svg" width="34" height="54" viewBox="0 0 34 54"><path d="M10.2,54a5.087,5.087,0,0,1-5.1-5.062,1.72,1.72,0,0,1,.186-.777c.122-.232,2.985-6.031-.071-13.8A38.351,38.351,0,0,1,3.1,18.275,8.358,8.358,0,0,1,0,11.813,8.536,8.536,0,0,1,10.1,3.52a8.52,8.52,0,0,1,13.8,0A8.536,8.536,0,0,1,34,11.813a8.358,8.358,0,0,1-3.1,6.463,38.351,38.351,0,0,1-2.115,16.086A19.579,19.579,0,0,0,27.4,41.509a16.174,16.174,0,0,0,1.316,6.666,1.742,1.742,0,0,1,.184.762A5.088,5.088,0,0,1,23.8,54Z" fill="#1e1e1e"/></svg>