<svg xmlns="http://www.w3.org/2000/svg" width="46" height="48" viewBox="0 0 46 48"><path d="M0,44.542l1.541-5.709,12.988,3.458L12.987,48ZM31.471,42.28l12.988-3.458L46,44.531,33.013,47.989Zm-29.2-6.165,2.389-8.847,12.987,3.458L15.26,39.573Zm26.078-5.4,12.987-3.459,2.389,8.847L30.739,39.564Zm-1.089-4.005,2.222-4.126-2-10.085L32.9,11.057l3.342,9.73,4,2.47.348,1.292L27.609,28ZM5.389,24.548l.348-1.292,4-2.47,3.342-9.73L18.506,12.5l-2,10.085,2.222,4.126L18.375,28ZM29.356,7.536l-2.451-1.4L29.657,1.4,32.108,2.8,29.357,7.536h0Zm-12.73,0L13.875,2.8,16.328,1.4,19.079,6.13l-2.451,1.4h0Zm7.781-2.069h-2.83V0h2.831V5.465h0Z" fill="#fff"/></svg>