<svg clas="header-cards__img" xmlns="http://www.w3.org/2000/svg" width="57" height="48" viewBox="0 0 57 48"><path d="M28.5,48a1.668,1.668,0,0,0,1.181-.489l8.938-8.927h17.8a5.21,5.21,0,0,1,.585,2.4A7.024,7.024,0,0,1,49.98,48ZM7.021,48A7.024,7.024,0,0,1,0,40.988a5.222,5.222,0,0,1,.585-2.4h17.8l8.939,8.927A1.665,1.665,0,0,0,28.5,48Zm7.624-17.865h27.71L28.5,43.973Zm27.314,5.113,5.119-5.113h9.243a6.109,6.109,0,0,1,.223,5.113Zm-41.5,0A6.105,6.105,0,0,1,.68,30.135H9.922l5.119,5.113ZM.679,26.8A6.034,6.034,0,0,1,0,24V19.534A17.964,17.964,0,0,1,3.687,9.6,21.453,21.453,0,0,1,12.31,2.935,40.021,40.021,0,0,1,28.5,0,40.019,40.019,0,0,1,44.69,2.935,21.453,21.453,0,0,1,53.312,9.6,17.959,17.959,0,0,1,57,19.534V24a6.043,6.043,0,0,1-.678,2.8H.679Zm26.6-13.973a1.531,1.531,0,0,0-.446,1.126,1.706,1.706,0,0,0,1.67,1.668,1.737,1.737,0,0,0,1.223-.543,1.531,1.531,0,0,0,.446-1.125A1.705,1.705,0,0,0,28.5,12.282,1.738,1.738,0,0,0,27.276,12.825Zm10.06-4.466a1.532,1.532,0,0,0-.445,1.125,1.706,1.706,0,0,0,1.67,1.668,1.736,1.736,0,0,0,1.224-.543,1.531,1.531,0,0,0,.445-1.125,1.705,1.705,0,0,0-1.669-1.668A1.74,1.74,0,0,0,37.337,8.359Zm-20.122,0a1.531,1.531,0,0,0-.445,1.125,1.705,1.705,0,0,0,1.67,1.668,1.74,1.74,0,0,0,1.225-.543,1.532,1.532,0,0,0,.445-1.125,1.706,1.706,0,0,0-1.67-1.668A1.736,1.736,0,0,0,17.214,8.359Z" fill="#"/></svg>