<svg    clas="header-cards__img"  xmlns="http://www.w3.org/2000/svg" width="45" height="48" viewBox="0 0 45 48"><path d="M25.513,48a1.406,1.406,0,0,1-1.407-1.406,10.447,10.447,0,0,1,20.893,0A1.406,1.406,0,0,1,43.593,48ZM1.407,48A1.406,1.406,0,0,1,0,46.594a10.447,10.447,0,0,1,20.894,0A1.406,1.406,0,0,1,19.487,48Zm27.12-17.875a6.027,6.027,0,1,1,6.027,6.025A6.033,6.033,0,0,1,28.526,30.125Zm-24.107,0a6.027,6.027,0,1,1,6.027,6.025A6.033,6.033,0,0,1,4.42,30.125Zm16.822-1.758L17.5,20.887H10.446a4.424,4.424,0,0,1-4.42-4.418V4.419A4.425,4.425,0,0,1,10.446,0H34.554a4.425,4.425,0,0,1,4.42,4.419v12.05a4.424,4.424,0,0,1-4.42,4.418H27.5l-3.74,7.48a1.407,1.407,0,0,1-2.516,0ZM17.136,10.825a1.407,1.407,0,0,0-.282,1.968,7.058,7.058,0,0,0,11.291,0,1.407,1.407,0,0,0-2.251-1.687,4.244,4.244,0,0,1-6.79,0,1.406,1.406,0,0,0-1.969-.281Zm6.971-3.394a1.407,1.407,0,1,0,1.407-1.407A1.408,1.408,0,0,0,24.107,7.431Zm-6.026,0a1.407,1.407,0,1,0,1.407-1.407A1.408,1.408,0,0,0,18.08,7.431Z" fill="#1e1e1e"/></svg>